<?xml version="1.0" encoding="UTF-8" standalone="no"?>
<svg width="133px" height="101px" viewBox="0 0 133 101" version="1.1" xmlns="http://www.w3.org/2000/svg" xmlns:xlink="http://www.w3.org/1999/xlink">
    <!-- Generator: Sketch 3.6.1 (26313) - http://www.bohemiancoding.com/sketch -->
    <title>TRACKING</title>
    <desc>Created with Sketch.</desc>
    <defs>
        <filter x="-50%" y="-50%" width="200%" height="200%" filterUnits="objectBoundingBox" id="filter-1">
            <feOffset dx="2" dy="2" in="SourceAlpha" result="shadowOffsetOuter1"></feOffset>
            <feGaussianBlur stdDeviation="2" in="shadowOffsetOuter1" result="shadowBlurOuter1"></feGaussianBlur>
            <feColorMatrix values="0 0 0 0 0   0 0 0 0 0   0 0 0 0 0  0 0 0 0.056 0" in="shadowBlurOuter1" type="matrix" result="shadowMatrixOuter1"></feColorMatrix>
            <feMerge>
                <feMergeNode in="shadowMatrixOuter1"></feMergeNode>
                <feMergeNode in="SourceGraphic"></feMergeNode>
            </feMerge>
        </filter>
    </defs>
    <g id="Page-1" stroke="none" stroke-width="1" fill="none" fill-rule="evenodd">
        <g id="TRACKING---1440---NEW-PROJECT-HOVER-+-ACTIVE" transform="translate(-59.000000, -338.000000)">
            <g id="SIDEBAR-LEFT" transform="translate(-51.000000, 0.000000)">
                <g id="TRACKING" transform="translate(110.000000, 340.000000)">
                    <circle id="Oval-2" fill="#FFFFFF" filter="url(#filter-1)" cx="67" cy="35" r="35"></circle>
                    <path d="M67,17.0042667 C66.7636,17.0042667 66.0328,16.9946667 65.8,17.0042667 L65.8,25.4042667 L68.2,25.4042667 L68.2,19.2542667 C75.7228,19.2230667 82.6,26.1170667 82.6,35.0042667 C82.6,44.1338667 76.1296,50.6042667 67,50.6042667 C57.868,50.6042667 51.4,44.1338667 51.4,35.0042667 C51.4,30.4370667 52.8232,26.8226667 55.822,23.8250667 L54.274,22.2758667 C51.0148,25.5326667 49,30.0326667 49,35.0042667 C49,44.9438667 57.058,53.0018667 67,53.0018667 C76.9408,53.0018667 85,44.9438667 85,35.0042667 C85,25.0646667 76.9408,17.0042667 67,17.0042667 L67,17.0042667 Z M64.702,35.3870667 C64.7272,35.4182667 64.762,35.4458667 64.7896,35.4758667 C65.1424,35.9174667 65.674,36.2042667 66.28,36.2042667 C67.3396,36.2042667 68.2,35.3390667 68.2,34.2674667 C68.2,33.6986667 67.9516,33.1934667 67.5676,32.8394667 C67.5172,32.7830667 67.4716,32.7254667 67.3972,32.6690667 L59.6392,26.7146667 C59.4136,26.5394667 59.0884,26.5298667 58.852,26.7146667 C58.5688,26.9342667 58.516,27.3434667 58.7332,27.6266667 L64.702,35.3870667 Z" id="ICON-TIMER" fill="#F66D5E"></path>
                    <path d="M1.054,86.1 C0.68,86.1 0.51,86.389 0.51,86.678 C0.51,86.95 0.68,87.239 1.054,87.239 L3.706,87.239 L3.706,97.354 C3.706,97.779 4.029,98 4.352,98 C4.692,98 5.015,97.779 5.015,97.354 L5.015,87.239 L7.667,87.239 C8.041,87.239 8.228,86.95 8.228,86.678 C8.228,86.389 8.041,86.1 7.667,86.1 L1.054,86.1 Z M10.438,86.729 L10.438,97.371 C10.438,97.796 10.761,98.017 11.084,98.017 C11.424,98.017 11.747,97.796 11.747,97.371 L11.747,86.729 C11.747,86.304 11.424,86.1 11.084,86.1 C10.761,86.1 10.438,86.304 10.438,86.729 L10.438,86.729 Z M18.513,90.299 C19.397,89.262 20.264,88.225 21.131,87.188 C21.25,87.052 21.318,86.882 21.318,86.712 C21.318,86.372 21.029,86.066 20.638,86.066 C20.468,86.066 20.315,86.117 20.196,86.253 C18.955,87.732 17.714,89.211 16.473,90.707 L16.473,86.729 C16.473,86.304 16.133,86.1 15.81,86.1 C15.47,86.1 15.147,86.304 15.147,86.729 L15.147,97.371 C15.147,97.796 15.47,98.017 15.81,98.017 C16.133,98.017 16.473,97.796 16.473,97.371 L16.473,92.747 C16.847,92.305 17.221,91.846 17.612,91.387 C18.734,93.495 19.856,95.603 20.995,97.711 C21.114,97.949 21.301,98.034 21.505,98.034 C21.862,98.034 22.219,97.745 22.219,97.354 C22.219,97.252 22.185,97.15 22.134,97.031 C20.927,94.787 19.72,92.543 18.513,90.299 L18.513,90.299 Z M30.141,86.1 L23.528,86.1 C23.154,86.1 22.984,86.389 22.984,86.678 C22.984,86.95 23.154,87.239 23.528,87.239 L26.18,87.239 L26.18,97.354 C26.18,97.779 26.503,98 26.826,98 C27.166,98 27.489,97.779 27.489,97.354 L27.489,87.239 L30.141,87.239 C30.515,87.239 30.702,86.95 30.702,86.678 C30.702,86.389 30.515,86.1 30.141,86.1 L30.141,86.1 Z M35.717,86.474 C35.683,86.321 35.513,85.981 35.088,85.981 C34.68,85.981 34.476,86.321 34.442,86.474 C33.609,90.078 32.776,92.815 31.756,97.15 C31.62,97.728 32.028,98.017 32.368,98.017 C33.065,98.017 33.201,96.606 33.422,95.807 L36.754,95.807 C36.805,96.011 36.89,96.3 36.975,96.674 C37.162,97.422 37.213,98.017 37.876,98.017 C38.284,98.017 38.556,97.66 38.437,97.184 C37.553,93.801 36.55,89.67 35.717,86.474 L35.717,86.474 Z M33.762,94.498 L35.088,89.364 L36.414,94.498 L33.762,94.498 Z M44.421,90.299 C45.305,89.262 46.172,88.225 47.039,87.188 C47.158,87.052 47.226,86.882 47.226,86.712 C47.226,86.372 46.937,86.066 46.546,86.066 C46.376,86.066 46.223,86.117 46.104,86.253 C44.863,87.732 43.622,89.211 42.381,90.707 L42.381,86.729 C42.381,86.304 42.041,86.1 41.718,86.1 C41.378,86.1 41.055,86.304 41.055,86.729 L41.055,97.371 C41.055,97.796 41.378,98.017 41.718,98.017 C42.041,98.017 42.381,97.796 42.381,97.371 L42.381,92.747 C42.755,92.305 43.129,91.846 43.52,91.387 C44.642,93.495 45.764,95.603 46.903,97.711 C47.022,97.949 47.209,98.034 47.413,98.034 C47.77,98.034 48.127,97.745 48.127,97.354 C48.127,97.252 48.093,97.15 48.042,97.031 C46.835,94.787 45.628,92.543 44.421,90.299 L44.421,90.299 Z M60.129,86.355 C59.313,87.817 58.514,89.279 57.698,90.724 C56.882,89.279 56.049,87.817 55.216,86.355 C55.08,86.134 54.893,86.032 54.706,86.032 C54.349,86.032 53.992,86.321 53.992,86.695 C53.992,86.797 54.026,86.916 54.094,87.018 C55.08,88.769 56.066,90.503 57.052,92.237 L57.052,97.422 C57.052,97.847 57.375,98.051 57.698,98.051 C58.038,98.051 58.361,97.847 58.361,97.422 L58.361,92.237 C59.33,90.503 60.299,88.769 61.268,87.018 C61.319,86.916 61.353,86.814 61.353,86.712 C61.353,86.338 60.996,86.032 60.639,86.032 C60.452,86.032 60.248,86.134 60.129,86.355 L60.129,86.355 Z M62.883,92.152 C62.883,94.549 63.019,98.102 66.181,98.102 C69.513,98.102 69.496,94.345 69.496,92.033 C69.496,89.466 69.343,85.981 66.181,85.981 C62.951,85.981 62.883,89.959 62.883,92.152 L62.883,92.152 Z M66.215,96.793 C64.328,96.793 64.209,94.413 64.209,92.288 C64.209,90.367 64.022,87.29 66.198,87.29 C68.391,87.29 68.187,90.639 68.187,92.033 C68.187,93.733 68.357,96.793 66.215,96.793 L66.215,96.793 Z M78.608,86.78 C78.608,86.355 78.268,86.151 77.945,86.151 C77.605,86.151 77.282,86.355 77.282,86.78 C77.282,89.415 77.231,92.101 77.231,94.668 C77.231,95.705 77.01,96.929 75.259,96.929 C73.168,96.929 73.304,95.008 73.304,93.733 L73.304,86.78 C73.304,86.355 72.964,86.151 72.641,86.151 C72.301,86.151 71.978,86.355 71.978,86.78 C71.978,89.415 71.893,92.135 71.893,94.702 C71.893,96.368 72.709,98.187 75.242,98.187 C78.897,98.187 78.608,95.025 78.608,92.22 L78.608,86.78 L78.608,86.78 Z M86.326,93.971 C87.38,93.121 87.397,91.438 87.397,90.214 C87.397,88.599 87.261,86.304 84.864,86.151 C84.269,86.117 83.64,86.117 83.045,86.117 C82.314,86.117 81.685,86.202 81.685,86.814 L81.685,97.405 C81.685,97.83 82.008,98.051 82.331,98.051 C82.671,98.051 82.994,97.83 82.994,97.405 L82.994,94.515 C83.81,94.532 84.473,94.549 85.136,94.481 C85.493,95.501 85.867,96.521 86.241,97.524 C86.343,97.813 86.581,98.017 86.87,98.017 C87.295,98.017 87.618,97.558 87.499,97.184 C87.108,96.113 86.717,95.042 86.326,93.971 L86.326,93.971 Z M82.994,93.206 L82.994,87.46 C83.878,87.443 85.068,87.341 85.646,87.919 C86.122,88.735 86.088,89.534 86.088,90.503 C86.088,91.285 86.054,92.543 85.425,93.019 C85.442,93.002 85.459,92.985 85.459,92.985 C85.068,93.376 83.215,93.206 82.994,93.206 L82.994,93.206 Z M104.159,86.508 C103.564,89.16 102.986,91.795 102.391,94.447 C101.779,91.795 101.15,89.143 100.538,86.508 C100.453,86.117 100.147,86.032 99.841,86.032 C99.586,86.032 99.348,86.168 99.263,86.508 C98.634,89.16 98.022,91.795 97.41,94.447 C96.815,91.795 96.254,89.143 95.642,86.508 C95.557,86.185 95.302,86.032 95.064,86.032 C94.639,86.032 94.231,86.457 94.367,86.865 C95.166,90.435 95.931,94.022 96.747,97.592 C96.815,97.915 97.053,98.051 97.308,98.051 C97.614,98.051 97.92,98 98.022,97.592 C98.651,94.923 99.28,92.254 99.892,89.585 C100.521,92.254 101.167,94.923 101.779,97.592 C101.864,98 102.187,98.051 102.493,98.051 C102.748,98.051 102.986,97.915 103.054,97.592 C103.853,94.022 104.584,90.435 105.434,86.865 C105.57,86.44 105.128,86.032 104.737,86.032 C104.482,86.032 104.227,86.185 104.159,86.508 L104.159,86.508 Z M106.998,92.152 C106.998,94.549 107.134,98.102 110.296,98.102 C113.628,98.102 113.611,94.345 113.611,92.033 C113.611,89.466 113.458,85.981 110.296,85.981 C107.066,85.981 106.998,89.959 106.998,92.152 L106.998,92.152 Z M110.33,96.793 C108.443,96.793 108.324,94.413 108.324,92.288 C108.324,90.367 108.137,87.29 110.313,87.29 C112.506,87.29 112.302,90.639 112.302,92.033 C112.302,93.733 112.472,96.793 110.33,96.793 L110.33,96.793 Z M120.989,93.971 C122.043,93.121 122.06,91.438 122.06,90.214 C122.06,88.599 121.924,86.304 119.527,86.151 C118.932,86.117 118.303,86.117 117.708,86.117 C116.977,86.117 116.348,86.202 116.348,86.814 L116.348,97.405 C116.348,97.83 116.671,98.051 116.994,98.051 C117.334,98.051 117.657,97.83 117.657,97.405 L117.657,94.515 C118.473,94.532 119.136,94.549 119.799,94.481 C120.156,95.501 120.53,96.521 120.904,97.524 C121.006,97.813 121.244,98.017 121.533,98.017 C121.958,98.017 122.281,97.558 122.162,97.184 C121.771,96.113 121.38,95.042 120.989,93.971 L120.989,93.971 Z M117.657,93.206 L117.657,87.46 C118.541,87.443 119.731,87.341 120.309,87.919 C120.785,88.735 120.751,89.534 120.751,90.503 C120.751,91.285 120.717,92.543 120.088,93.019 C120.105,93.002 120.122,92.985 120.122,92.985 C119.731,93.376 117.878,93.206 117.657,93.206 L117.657,93.206 Z M128.452,90.299 C129.336,89.262 130.203,88.225 131.07,87.188 C131.189,87.052 131.257,86.882 131.257,86.712 C131.257,86.372 130.968,86.066 130.577,86.066 C130.407,86.066 130.254,86.117 130.135,86.253 C128.894,87.732 127.653,89.211 126.412,90.707 L126.412,86.729 C126.412,86.304 126.072,86.1 125.749,86.1 C125.409,86.1 125.086,86.304 125.086,86.729 L125.086,97.371 C125.086,97.796 125.409,98.017 125.749,98.017 C126.072,98.017 126.412,97.796 126.412,97.371 L126.412,92.747 C126.786,92.305 127.16,91.846 127.551,91.387 C128.673,93.495 129.795,95.603 130.934,97.711 C131.053,97.949 131.24,98.034 131.444,98.034 C131.801,98.034 132.158,97.745 132.158,97.354 C132.158,97.252 132.124,97.15 132.073,97.031 C130.866,94.787 129.659,92.543 128.452,90.299 L128.452,90.299 Z" id="TRACK-YOUR-TIME" fill="#FFFFFF"></path>
                </g>
            </g>
        </g>
    </g>
</svg>